<svg xmlns="http://www.w3.org/2000/svg" viewBox="0 0 412.17 412.17"><defs><style>.cls-1{fill:#14387f;}.cls-2{fill:#63c3d1;}.cls-3{fill:#edc500;}.cls-4,.cls-5{fill:#fff;}.cls-4{fill-rule:evenodd;}.cls-5{font-size:40px;font-family:MyriadPro-Bold, Myriad Pro;font-weight:700;}</style></defs><title>Asset 1@2</title><g id="Layer_2" data-name="Layer 2"><g id="logolar"><circle class="cls-1" cx="206.08" cy="206.08" r="201.43" transform="translate(-85.36 206.08) rotate(-45)"/><circle class="cls-2" cx="206.08" cy="206.08" r="140.66" transform="translate(-85.36 206.08) rotate(-45)"/><path class="cls-3" d="M206.08,0C319.9,0,412.17,92.26,412.17,206.08S319.9,412.17,206.08,412.17,0,319.9,0,206.08,92.27,0,206.08,0Zm0,4.66C94.84,4.66,4.66,94.84,4.66,206.08S94.84,407.51,206.08,407.51s201.43-90.18,201.43-201.43S317.33,4.66,206.08,4.66Z"/><path class="cls-3" d="M206.08,60.76A145.32,145.32,0,1,1,60.76,206.08,145.33,145.33,0,0,1,206.08,60.76Zm0,4.66A140.67,140.67,0,1,0,346.75,206.08,140.66,140.66,0,0,0,206.08,65.42Z"/><path class="cls-4" d="M245.3,385.53l5.48-1.47q1.16,3.69,5.11,2.41a4.05,4.05,0,0,0,2.77-2.65,6.72,6.72,0,0,0,0-3.82,6.35,6.35,0,0,0-1.95-3.47,4.23,4.23,0,0,0-4.26-.65,3.62,3.62,0,0,0-2.62,2.92l-5,1.35-1.66-16.35,15-4,1.34,5-11.59,3.11.6,6.05a9,9,0,0,1,4.45-2.94,9.22,9.22,0,0,1,3.11-.28,8.23,8.23,0,0,1,5.38,2.47,11,11,0,0,1,2.8,5,11.4,11.4,0,0,1,0,6.37q-1.41,4.64-7,6.54a9.64,9.64,0,0,1-7.36-.32A7.23,7.23,0,0,1,245.3,385.53ZM209,368.33l20.42-1.78.38,4.45a51.32,51.32,0,0,0-6.25,11.89,36.54,36.54,0,0,0-2,13.58l-5.81.51A48.2,48.2,0,0,1,218,383.29a58.45,58.45,0,0,1,5.75-11.06l-14.36,1.26Zm-19.49,4.27a4.17,4.17,0,0,0-3.15-1.67,4.52,4.52,0,0,0-3.6,1.33,5.67,5.67,0,0,0-1.51,3.59,5.26,5.26,0,0,0,.88,3.95,4.21,4.21,0,0,0,3.09,1.79,4.34,4.34,0,0,0,3.35-1,5.18,5.18,0,0,0,1.76-3.51C190.52,375.06,190.25,373.58,189.46,372.6Zm-14.55,15.3,5.59.69a2.54,2.54,0,0,0,.48,2.13,2.9,2.9,0,0,0,2.22,1.47,4.12,4.12,0,0,0,3-.38,4.52,4.52,0,0,0,1.79-1.81,11.93,11.93,0,0,0,1.36-4,4.22,4.22,0,0,0-.06-1.58,6.45,6.45,0,0,1-5.2,1.92,8.32,8.32,0,0,1-7.58-6,12,12,0,0,1-.37-5.1A11.31,11.31,0,0,1,178,370a10,10,0,0,1,3.74-3.1,9.21,9.21,0,0,1,6.47-.49,8.38,8.38,0,0,1,3.86,1.92,7,7,0,0,1,3,4.59,21.17,21.17,0,0,1,.48,8.83q-.88,7.29-3.64,11.14-3.21,4.53-9.2,3.79a8.5,8.5,0,0,1-6.62-4C174.9,390.81,174.53,389.24,174.91,387.9Zm-14.18-26.32-9,27.69-5.47-1.77,6.22-19.15-6.64-2.15,1.18-3.64c2.69.87,4.89,1,6.63.47a5.18,5.18,0,0,0,3.45-2.63Z"/><path class="cls-4" d="M195.76,178.86l10.47-9.28,10.42,9.1h16.78v16.37l9.48,11.45-9.67,9.88v16.31H217.4l-11.16,9.84L195,232.88H179V216.74l-9.68-10.27L179,195.23V178.86Zm1,2.56H181.6v14.76l-8.79,10.21,8.79,9.33v14.6H196l10.24,8.81,10.21-9h14.25v-14.8l8.79-9L230.87,196V181.24H215.69L206.24,173Zm42.17,55.49V218.74l13.82-13.81,31.89,32Zm2.57-2.56h37l-25.73-25.8L241.48,219.8Zm0-57.29v14.55l11.24,11.25,25.73-25.8Zm-2.57-2.56h45.71l-31.89,32-13.82-13.81Zm83.83,62.31H294.82L263.6,205.75l31.22-31.24,28.24,0,12.27,31.22ZM321,234.25l11.55-28.51-11.25-28.65-25.44,0-28.65,28.68,28.65,28.5ZM173.25,174.53v18.18l-13.81,13.81-31.89-32Zm-2.56,2.57h-37l25.72,25.8,11.25-11.25Zm0,57.29V219.84l-11.25-11.25-25.72,25.8Zm2.56,2.56h-45.7l31.89-32,13.81,13.81ZM89.42,174.64h27.93l31.21,31.06-31.21,31.24-28.25,0L76.84,205.69Zm1.73,2.56L79.6,205.71l11.25,28.64,25.44,0,28.65-28.68-28.65-28.5Zm83.3,62.85h18.17l13.81,13.82-32,31.88Zm2.56,2.57v37l25.8-25.73-11.25-11.24Zm57.24,0H219.7l-11.25,11.24,25.8,25.73Zm2.56-2.57v45.7l-32-31.88,13.82-13.82Zm68.66,26.19-18.25-18.47H247.71v39.52l18.09,18,27.88-11.47Zm3-.58-12.88,30.15L265.2,308.33l-20-20V245.21h43.14Zm-205.47,0,20.21-20.45h43.14v43.14l-20,20-30.42-12.52Zm3,.58,11.8,27.6,27.87,11.47,18.09-18V247.77H124.31ZM174.49,323V295.08l31.06-31.22,31.25,31.21,0,28.25-31.22,12.26Zm2.57-1.73,28.5,11.55,28.65-11.25,0-25.44-28.67-28.65-28.5,28.65Zm60-149.16H218.89L205.08,158.3l32-31.89Zm-2.57-2.56v-37L208.71,158.3,220,169.55Zm-57.23,0h14.55l11.25-11.25-25.8-25.72Zm-2.56,2.56v-45.7l32,31.89-13.81,13.81Zm-68.66-26.18,18.24,18.46H163.8V124.88l-18.08-18-27.88,11.46Zm-3,.57,12.88-30.15,30.43-12.51,20,20V167H123.22Zm205.47,0L288.28,167H245.13V123.81l20.05-20,30.42,12.51Zm-3-.57-11.79-27.61-27.88-11.46-18.09,18v39.51h39.52ZM237,89.17v27.92L206,148.31l-31.24-31.22,0-28.24L206,76.58Zm-2.56,1.72L206,79.34,177.31,90.59l0,25.44L206,144.68,234.46,116Z"/><g id="logoyeniisim"><text class="cls-5" transform="translate(58.43 273.55) rotate(-110.3)">B</text><text class="cls-5" transform="matrix(-0.16, -0.99, 0.99, -0.16, 48.6, 245.99)">U</text><text class="cls-5" transform="matrix(0.02, -1, 1, 0.02, 44.01, 214.11)">R</text><text class="cls-5" transform="matrix(0.19, -0.98, 0.98, 0.19, 45.11, 185.99)">S</text><text class="cls-5" transform="matrix(0.36, -0.93, 0.93, 0.36, 50.29, 160.16)">A</text><text class="cls-5" transform="translate(61.66 132.85) rotate(-61.63)"> </text><text class="cls-5" transform="matrix(0.59, -0.81, 0.81, 0.59, 66.82, 122.47)">U</text><text class="cls-5" transform="translate(86.06 97.04) rotate(-44.14)">L</text><text class="cls-5" transform="translate(103.03 80.55) rotate(-34.62)">U</text><text class="cls-5" transform="translate(130.25 62.39) rotate(-22.94)">D</text><text class="cls-5" transform="translate(160.3 50.25) rotate(-11.68)">A</text><text class="cls-5" transform="translate(189.83 44.49) rotate(-0.93)">Ğ</text><text class="cls-5" transform="translate(220.67 44.84) rotate(6.52)"> </text><text class="cls-5" transform="translate(232.25 45.76) rotate(14.04)">Ü</text><text class="cls-5" transform="translate(263.87 54.23) rotate(25.75)">N</text><text class="cls-5" transform="translate(291.76 68.64) rotate(34.01)">İ</text><text class="cls-5" transform="translate(304.33 76.84) rotate(41.75)">V</text><text class="cls-5" transform="matrix(0.62, 0.78, -0.78, 0.62, 326.3, 97.21)">E</text><text class="cls-5" transform="translate(342.12 117.58) rotate(61.09)">R</text><text class="cls-5" transform="matrix(0.33, 0.94, -0.94, 0.33, 355.33, 142.46)">S</text><text class="cls-5" transform="translate(363.04 166.07) rotate(77.77)">İ</text><text class="cls-5" transform="translate(366.27 180.39) rotate(84.83)">T</text><text class="cls-5" transform="translate(368.27 206.41) rotate(93.83)">E</text><text class="cls-5" transform="translate(366.24 231.9) rotate(102.92)">S</text><text class="cls-5" transform="translate(360.19 255.98) rotate(109.96)">İ</text></g></g></g></svg>