<svg xmlns="http://www.w3.org/2000/svg" xmlns:xlink="http://www.w3.org/1999/xlink"
  zoomAndPan="magnify" viewBox="0 0 105 105" preserveAspectRatio="xMidYMid meet" version="1.0">
  <defs>
    <filter x="0%" y="0%" width="100%" height="100%" id="de717cdf56">
      <feColorMatrix values="0 0 0 0 1 0 0 0 0 1 0 0 0 0 1 0 0 0 1 0"
        color-interpolation-filters="sRGB" />
    </filter>
    <g />
    <clipPath id="2fecea3ba8">
      <path
        d="M 18.855469 18.855469 L 102.703125 18.855469 L 102.703125 84.699219 L 18.855469 84.699219 Z M 18.855469 18.855469 "
        clip-rule="nonzero" />
    </clipPath>
    <clipPath id="7906ab2701">
      <path
        d="M 46.246094 18.855469 L 97.085938 18.855469 C 98.824219 18.855469 100.457031 19.691406 101.472656 21.101562 C 102.488281 22.511719 102.765625 24.324219 102.214844 25.972656 L 85.011719 77.585938 C 83.59375 81.832031 79.617188 84.699219 75.140625 84.699219 L 24.296875 84.699219 C 22.558594 84.699219 20.929688 83.863281 19.914062 82.453125 C 18.894531 81.046875 18.621094 79.234375 19.167969 77.585938 L 36.375 25.972656 C 37.789062 21.722656 41.765625 18.855469 46.246094 18.855469 Z M 46.246094 18.855469 "
        clip-rule="nonzero" />
    </clipPath>
    <mask id="f20479c3fa">
      <g filter="url(#de717cdf56)">
        <rect x="-45" width="540" fill="#000000" y="-9" height="107.999999" fill-opacity="0.8" />
      </g>
    </mask>
    <clipPath id="b2d54153ea">
      <path
        d="M 2.8125 0.738281 L 86.65625 0.738281 L 86.65625 66.582031 L 2.8125 66.582031 Z M 2.8125 0.738281 "
        clip-rule="nonzero" />
    </clipPath>
    <clipPath id="aced21fa96">
      <path
        d="M 30.199219 0.738281 L 81.042969 0.738281 C 82.78125 0.738281 84.414062 1.574219 85.429688 2.984375 C 86.445312 4.394531 86.722656 6.203125 86.171875 7.851562 L 68.96875 59.464844 C 67.550781 63.714844 63.574219 66.582031 59.097656 66.582031 L 8.253906 66.582031 C 6.515625 66.582031 4.882812 65.746094 3.867188 64.335938 C 2.851562 62.925781 2.574219 61.113281 3.125 59.464844 L 20.328125 7.851562 C 21.746094 3.605469 25.722656 0.738281 30.199219 0.738281 Z M 30.199219 0.738281 "
        clip-rule="nonzero" />
    </clipPath>
    <clipPath id="4cfa72c930">
      <rect x="0" width="89" y="0" height="67" />
    </clipPath>
  </defs>
  <g clip-path="url(#2fecea3ba8)">
    <g clip-path="url(#7906ab2701)">
      <path fill="#0558ee"
        d="M 16.796875 18.855469 L 104.5 18.855469 L 104.5 84.699219 L 16.796875 84.699219 Z M 16.796875 18.855469 "
        fill-opacity="1" fill-rule="nonzero" />
    </g>
  </g>
  <g mask="url(#f20479c3fa)">
    <g transform="matrix(1, 0, 0, 1, 4, 6)">
      <g clip-path="url(#4cfa72c930)">
        <g clip-path="url(#b2d54153ea)">
          <g clip-path="url(#aced21fa96)">
            <path fill="#21e8e6"
              d="M 0.753906 0.738281 L 88.457031 0.738281 L 88.457031 66.582031 L 0.753906 66.582031 Z M 0.753906 0.738281 "
              fill-opacity="1" fill-rule="nonzero" />
          </g>
        </g>
      </g>
    </g>
  </g>
</svg>